<svg width="40" height="40" viewBox="0 0 40 40" fill="none" xmlns="http://www.w3.org/2000/svg">
<g clip-path="url(#clip0_12_52)">
<path d="M20 0C8.96911 0 0 8.96912 0 20C0 31.0309 8.96911 40 20 40C31.0309 40 40 31.0309 40 20C40 8.96912 31.0309 0 20 0ZM20 2.5C29.6798 2.5 37.5 10.3202 37.5 20C37.5 29.6798 29.6798 37.5 20 37.5C10.3202 37.5 2.5 29.6798 2.5 20C2.5 10.3202 10.3202 2.5 20 2.5ZM20 10L13.75 16.25H10V23.75H13.75L20 30V10ZM25.4297 12.2461C25.1586 12.27 24.9027 12.3818 24.7009 12.5644C24.4991 12.747 24.3624 12.9905 24.3116 13.2579C24.2608 13.5253 24.2986 13.8019 24.4193 14.0458C24.54 14.2898 24.7371 14.4876 24.9805 14.6094C27.9826 16.3426 28.9989 20.1033 27.2656 23.1055C26.7171 24.0556 25.9306 24.842 24.9805 25.3906C24.8368 25.4753 24.7113 25.5874 24.611 25.7205C24.5107 25.8537 24.4376 26.0053 24.3958 26.1668C24.3541 26.3282 24.3446 26.4962 24.3679 26.6613C24.3911 26.8264 24.4466 26.9853 24.5312 27.1289C24.6159 27.2725 24.728 27.3981 24.8612 27.4984C24.9943 27.5987 25.1459 27.6718 25.3074 27.7135C25.4688 27.7553 25.6368 27.7648 25.8019 27.7415C25.967 27.7183 26.1259 27.6628 26.2695 27.5781C27.5996 26.8101 28.6852 25.7246 29.4531 24.3945C31.862 20.2223 30.4418 14.8307 26.2695 12.4219C26.0521 12.2913 25.8 12.23 25.5469 12.2461C25.5078 12.2442 25.4687 12.2442 25.4297 12.2461ZM23.7695 15.4882C23.7302 15.4928 23.6911 15.4993 23.6523 15.5076C23.3817 15.5237 23.1236 15.6274 22.917 15.803C22.7104 15.9786 22.5665 16.2166 22.507 16.4811C22.4475 16.7457 22.4756 17.0224 22.587 17.2695C22.6985 17.5167 22.8873 17.7209 23.125 17.8514C24.3336 18.5491 24.7212 20.0412 24.0234 21.2498C23.804 21.6299 23.5051 21.9288 23.125 22.1482C22.9814 22.2303 22.8553 22.3399 22.754 22.4707C22.6527 22.6015 22.5782 22.7509 22.5347 22.9105C22.4911 23.0701 22.4795 23.2368 22.5003 23.4009C22.5212 23.565 22.5742 23.7234 22.6562 23.867C22.7383 24.0107 22.8479 24.1367 22.9787 24.238C23.1095 24.3393 23.2589 24.4138 23.4185 24.4573C23.5781 24.5008 23.7448 24.5125 23.9089 24.4917C24.073 24.4708 24.2314 24.4179 24.375 24.3358C25.135 23.897 25.7721 23.2599 26.2109 22.4998C27.5842 20.1212 26.7536 17.0372 24.375 15.6639C24.1915 15.5545 23.9831 15.4942 23.7695 15.4882Z" fill="white"/>
</g>
<defs>
<clipPath id="clip0_12_52">
<rect width="40" height="40" fill="white"/>
</clipPath>
</defs>
</svg>
